<?xml version="1.0" standalone="no"?>
<!DOCTYPE svg PUBLIC "-//W3C//DTD SVG 20010904//EN"
 "http://www.w3.org/TR/2001/REC-SVG-20010904/DTD/svg10.dtd">
<svg version="1.0" xmlns="http://www.w3.org/2000/svg"
 width="512.000000pt" height="512.000000pt" viewBox="0 0 512.000000 512.000000"
 preserveAspectRatio="xMidYMid meet">
<metadata>
Created by potrace 1.16, written by Peter Selinger 2001-2019
</metadata>
<g transform="translate(0.000000,512.000000) scale(0.100000,-0.100000)"
fill="#000000" stroke="none">
<path d="M670 2331 c-8 -5 -33 -12 -55 -16 -128 -22 -262 -158 -297 -300 -64
-258 55 -473 307 -556 25 -9 86 -13 160 -13 123 0 170 10 253 53 60 31 157
115 157 136 0 11 -18 30 -48 48 l-48 30 -32 -30 c-48 -44 -104 -83 -119 -83
-8 0 -20 -6 -26 -12 -9 -9 -50 -13 -130 -13 -104 1 -123 3 -173 27 -63 29
-121 82 -142 130 -33 77 -37 92 -37 152 0 138 58 234 178 293 53 26 65 28 183
28 112 0 130 -2 171 -24 25 -13 63 -41 84 -62 21 -21 44 -39 50 -39 17 0 74
33 74 43 0 4 7 7 15 7 29 0 14 29 -43 81 -61 57 -122 93 -188 111 -49 14 -274
21 -294 9z"/>
<path d="M1685 2323 c-5 -5 -17 -24 -26 -43 -23 -49 -83 -171 -97 -195 -37
-67 -302 -612 -302 -623 0 -10 18 -12 72 -10 l72 3 35 70 c18 39 46 95 61 125
l28 55 207 0 206 1 45 -92 c24 -50 44 -94 44 -98 0 -5 9 -21 21 -37 19 -27 25
-29 84 -29 35 0 66 4 69 9 3 5 -14 48 -38 97 -42 84 -73 149 -245 509 -131
273 -121 260 -177 263 -27 1 -53 -1 -59 -5z m126 -351 c34 -68 59 -125 57
-128 -3 -2 -64 -3 -136 -2 l-131 3 67 137 c43 90 69 133 74 125 5 -6 36 -67
69 -135z"/>
<path d="M2285 2318 c-3 -7 -4 -204 -3 -438 l3 -425 62 -3 63 -3 2 183 3 183
150 3 c85 2 176 -2 210 -8 128 -25 138 -40 145 -220 l5 -135 53 -3 c30 -2 59
1 66 7 9 7 11 51 9 157 -3 160 -10 188 -60 237 l-29 27 42 44 c54 56 72 129
55 215 -15 72 -52 118 -126 156 l-60 30 -292 3 c-239 3 -294 2 -298 -10z m565
-129 c60 -34 70 -49 70 -110 0 -54 -2 -59 -36 -88 -49 -39 -105 -48 -305 -47
l-162 1 -2 95 c-1 52 0 112 3 132 l5 38 201 -4 c148 -2 208 -7 226 -17z"/>
<path d="M3150 2270 l0 -60 163 -2 162 -3 5 -375 5 -375 63 -3 62 -3 0 381 0
380 164 0 c122 0 165 3 168 13 3 6 4 32 4 57 l-1 45 -397 3 -398 2 0 -60z"/>
<path d="M4040 1890 l0 -440 360 0 360 0 6 23 c3 13 4 41 2 63 l-3 39 -295 5
-295 5 0 120 c0 66 1 125 3 130 1 6 95 10 258 9 l255 -1 -3 66 -3 66 -245 2
c-135 0 -250 2 -256 2 -9 1 -13 163 -6 219 2 9 68 12 292 12 l290 0 0 60 0 60
-360 0 -360 0 0 -440z"/>
</g>
</svg>
